<svg width="24" height="23" viewBox="0 0 24 23" fill="none" xmlns="http://www.w3.org/2000/svg">
<path d="M12 0.919922C6.1632 0.919922 1.41998 5.66314 1.41998 11.4999C1.41998 17.3367 6.1632 22.0799 12 22.0799C17.8368 22.0799 22.58 17.3367 22.58 11.4999C22.58 5.66314 17.8368 0.919922 12 0.919922ZM12 1.83992C17.3394 1.83992 21.66 6.16055 21.66 11.4999C21.66 11.5328 21.6576 11.5651 21.6573 11.5979C21.3631 11.5707 21.0231 11.5449 20.5908 11.5296C19.9796 11.5079 19.2092 11.5142 18.3358 11.5574C18.3682 11.3319 18.3909 11.1031 18.3915 10.8683C18.436 10.0069 18.1467 9.20106 17.6763 8.48926C17.79 8.09654 17.9233 7.59692 17.9566 7.0302C17.9946 6.38423 17.9389 5.66793 17.4203 5.18391L17.2873 5.05992H17.1058C15.8716 5.05992 15.0268 5.5766 14.5102 5.98621C13.7643 5.69749 12.9256 5.51992 12 5.51992C11.0691 5.51992 10.2223 5.69997 9.44573 5.98801C8.92944 5.5782 8.0839 5.05992 6.84834 5.05992H6.66776L6.53479 5.18301C6.02962 5.65209 5.98308 6.34873 6.01459 6.99156C6.04238 7.55841 6.16798 8.07391 6.27963 8.48566C5.80125 9.21136 5.51416 10.0381 5.51416 10.8557C5.51416 11.0911 5.53605 11.3206 5.56807 11.5466C4.73742 11.5081 3.99695 11.5007 3.40912 11.5215C2.97686 11.5368 2.63689 11.5624 2.34268 11.5898C2.3424 11.5597 2.33998 11.53 2.33998 11.4999C2.33998 6.16055 6.66061 1.83992 12 1.83992ZM7.12237 6.04012C8.05045 6.12806 8.7487 6.54249 9.07198 6.82984L9.2876 7.02031L9.55354 6.9116C10.281 6.61206 11.0924 6.43992 12 6.43992C12.9076 6.43992 13.7192 6.61292 14.3916 6.90711L14.6612 7.0257L14.8813 6.82984C15.2047 6.54239 15.9041 6.12784 16.8327 6.04012C16.9561 6.24481 17.0634 6.53591 17.0375 6.97629C17.0065 7.50332 16.8655 8.07736 16.759 8.41828L16.6898 8.6402L16.8273 8.82797C17.2824 9.44864 17.5145 10.1204 17.4751 10.8306L17.4742 10.8432V10.8557C17.4742 12.0037 17.0608 12.9224 16.1804 13.6032C15.3 14.2839 13.9102 14.7199 11.9542 14.7199C9.99812 14.7199 8.6074 14.2839 7.72701 13.6032C6.84662 12.9224 6.43416 12.0037 6.43416 10.8557C6.43416 10.182 6.67746 9.44078 7.12686 8.82797L7.26162 8.64469L7.19694 8.42637C7.09034 8.06394 6.95968 7.47681 6.93369 6.94664C6.91208 6.50567 7.01644 6.22695 7.12237 6.04012ZM4.58698 11.9698C4.91205 11.974 5.28465 11.9915 5.65791 12.0102C5.69358 12.1537 5.73424 12.2948 5.78369 12.4325C4.26231 12.4646 3.12416 12.6176 2.42264 12.7488C2.39298 12.5186 2.36935 12.2865 2.35615 12.0516C2.8746 12.0024 3.60544 11.9573 4.58698 11.9698ZM19.413 11.977C20.3938 11.9645 21.1244 12.0097 21.6429 12.0588C21.6297 12.2904 21.6065 12.5191 21.5773 12.7461C20.8507 12.6128 19.6818 12.4598 18.121 12.4352C18.1695 12.3002 18.2098 12.1615 18.245 12.021C18.6568 11.9989 19.0585 11.9815 19.413 11.977ZM5.97955 12.8889C6.25405 13.439 6.64628 13.9301 7.16459 14.3309C7.87324 14.8789 8.79453 15.2617 9.9192 15.4665C9.77207 15.6177 9.63824 15.7837 9.5194 15.9589L9.49155 15.9346C9.49408 15.9317 9.26287 16.0474 8.91744 16.0784C8.57202 16.1093 8.14593 16.0999 7.76834 16.0999C7.20484 16.0999 6.95664 15.8337 6.55994 15.3488C6.34027 15.0528 6.07247 14.813 5.81244 14.631C5.54619 14.4446 5.31906 14.3131 5.03799 14.2662L5.00026 14.2599H4.96162C4.74696 14.2599 4.53924 14.2755 4.3453 14.4971C4.24833 14.6079 4.18149 14.8131 4.2249 14.9868C4.26832 15.1604 4.37818 15.2671 4.47647 15.3327C5.10516 15.7518 5.21627 16.5813 5.6103 17.3191C5.97826 18.0523 6.77239 18.3999 7.58416 18.3999H8.77998V20.6092C5.54518 19.4674 3.10574 16.654 2.49272 13.2034C3.19693 13.0707 4.37619 12.9113 5.97955 12.8889ZM17.9261 12.8925C19.5649 12.9065 20.7773 13.0658 21.5081 13.2007C20.8959 16.6526 18.4557 19.4671 15.22 20.6092V18.2157C15.22 17.4868 14.9806 16.6831 14.5641 16.0128C14.4377 15.8093 14.2889 15.6168 14.123 15.4441C15.188 15.2337 16.0629 14.8574 16.7437 14.3309C17.2609 13.931 17.6523 13.4413 17.9261 12.8925ZM11.4016 15.6857H12.69C13.0639 15.6857 13.463 15.9837 13.7825 16.4979C14.102 17.0121 14.3 17.7026 14.3 18.2157V20.8832C13.5628 21.063 12.7929 21.1599 12 21.1599C11.207 21.1599 10.4372 21.063 9.69998 20.8832V18.2157C9.69998 17.714 9.91518 17.0251 10.2561 16.5087C10.597 15.9923 11.0277 15.6857 11.4016 15.6857ZM6.16194 16.2293C6.56019 16.6424 7.04234 17.0199 7.76834 17.0199C8.12676 17.0199 8.57413 17.0328 8.9992 16.9948C9.00071 16.9946 9.00218 16.994 9.00369 16.9939C8.94769 17.1549 8.90591 17.3169 8.87073 17.4799H7.58416C7.01683 17.4799 6.61604 17.275 6.43147 16.9058L6.42787 16.8995L6.42518 16.8941C6.34955 16.7537 6.25028 16.4728 6.16194 16.2293Z" fill="#EFEFEF"/>
</svg>
