<svg width="24" height="23" viewBox="0 0 24 23" fill="none" xmlns="http://www.w3.org/2000/svg">
<path d="M7.86001 1.37988C4.56295 1.37988 1.88 4.06283 1.88 7.35988V15.6399C1.88 18.9369 4.56295 21.6199 7.86001 21.6199H16.14C19.4371 21.6199 22.12 18.9369 22.12 15.6399V7.35988C22.12 4.06283 19.4371 1.37988 16.14 1.37988H7.86001ZM7.86001 2.29988H16.14C18.9398 2.29988 21.2 4.5601 21.2 7.35988V15.6399C21.2 18.4397 18.9398 20.6999 16.14 20.6999H7.86001C5.06022 20.6999 2.8 18.4397 2.8 15.6399V7.35988C2.8 4.5601 5.06022 2.29988 7.86001 2.29988ZM17.52 5.05988C17.276 5.05988 17.042 5.15681 16.8695 5.32934C16.6969 5.50188 16.6 5.73588 16.6 5.97988C16.6 6.22388 16.6969 6.45789 16.8695 6.63042C17.042 6.80295 17.276 6.89988 17.52 6.89988C17.764 6.89988 17.998 6.80295 18.1705 6.63042C18.3431 6.45789 18.44 6.22388 18.44 5.97988C18.44 5.73588 18.3431 5.50188 18.1705 5.32934C17.998 5.15681 17.764 5.05988 17.52 5.05988ZM12 6.43988C9.21089 6.43988 6.94001 8.71077 6.94001 11.4999C6.94001 14.289 9.21089 16.5599 12 16.5599C14.7891 16.5599 17.06 14.289 17.06 11.4999C17.06 8.71077 14.7891 6.43988 12 6.43988ZM12 7.35988C14.2919 7.35988 16.14 9.20798 16.14 11.4999C16.14 13.7918 14.2919 15.6399 12 15.6399C9.7081 15.6399 7.86001 13.7918 7.86001 11.4999C7.86001 9.20798 9.7081 7.35988 12 7.35988Z" fill="#EFEFEF"/>
</svg>
