<svg width="24" height="23" viewBox="0 0 24 23" fill="none" xmlns="http://www.w3.org/2000/svg">
<path d="M12 0.919922C6.16226 0.919922 1.41998 5.6622 1.41998 11.4999C1.41998 17.3376 6.16226 22.0799 12 22.0799C17.8377 22.0799 22.58 17.3376 22.58 11.4999C22.58 5.6622 17.8377 0.919922 12 0.919922ZM12 1.83992C17.3405 1.83992 21.66 6.1594 21.66 11.4999C21.66 16.8404 17.3405 21.1599 12 21.1599C6.65946 21.1599 2.33998 16.8404 2.33998 11.4999C2.33998 6.1594 6.65946 1.83992 12 1.83992ZM7.85998 5.51992C7.10328 5.51992 6.47998 6.14322 6.47998 6.89992C6.47998 7.65663 7.10328 8.27992 7.85998 8.27992C8.61669 8.27992 9.23998 7.65663 9.23998 6.89992C9.23998 6.14322 8.61669 5.51992 7.85998 5.51992ZM7.85998 6.43992C8.11948 6.43992 8.31998 6.64042 8.31998 6.89992C8.31998 7.15942 8.11948 7.35992 7.85998 7.35992C7.60048 7.35992 7.39998 7.15942 7.39998 6.89992C7.39998 6.64042 7.60048 6.43992 7.85998 6.43992ZM6.93998 8.73992C6.81799 8.73993 6.70099 8.7884 6.61473 8.87467C6.52846 8.96093 6.48 9.07793 6.47998 9.19992V16.0999C6.48 16.2219 6.52846 16.3389 6.61473 16.4252C6.70099 16.5114 6.81799 16.5599 6.93998 16.5599H8.77998C8.90198 16.5599 9.01897 16.5114 9.10524 16.4252C9.1915 16.3389 9.23997 16.2219 9.23998 16.0999V9.19992C9.23997 9.07793 9.1915 8.96093 9.10524 8.87467C9.01897 8.7884 8.90198 8.73993 8.77998 8.73992H6.93998ZM10.62 8.73992C10.498 8.73993 10.381 8.7884 10.2947 8.87467C10.2085 8.96093 10.16 9.07793 10.16 9.19992V16.0999C10.16 16.2219 10.2085 16.3389 10.2947 16.4252C10.381 16.5114 10.498 16.5599 10.62 16.5599H12.46C12.582 16.5599 12.699 16.5114 12.7852 16.4252C12.8715 16.3389 12.92 16.2219 12.92 16.0999V12.6499C12.92 12.0153 13.4354 11.4999 14.07 11.4999C14.7046 11.4999 15.22 12.0153 15.22 12.6499V13.7999V16.0999C15.22 16.2219 15.2685 16.3389 15.3547 16.4252C15.441 16.5114 15.558 16.5599 15.68 16.5599H17.52C17.642 16.5599 17.759 16.5114 17.8452 16.4252C17.9315 16.3389 17.98 16.2219 17.98 16.0999V12.1899C17.98 10.2899 16.43 8.73992 14.53 8.73992C13.9382 8.73992 13.4075 8.93135 12.92 9.19543C12.9188 9.07421 12.8698 8.95837 12.7837 8.87307C12.6975 8.78778 12.5812 8.73993 12.46 8.73992H10.62ZM7.39998 9.65992H8.31998V15.6399H7.39998V9.65992ZM11.08 9.65992H12V10.0355C12 10.1257 12.0265 10.2139 12.0763 10.2892C12.1261 10.3644 12.1969 10.4234 12.2799 10.4587C12.3629 10.494 12.4545 10.5042 12.5432 10.4879C12.6319 10.4716 12.7139 10.4295 12.7789 10.367C13.2347 9.92916 13.8477 9.65992 14.53 9.65992C15.9328 9.65992 17.06 10.7871 17.06 12.1899V15.6399H16.14V13.7999V12.6499C16.14 11.5135 15.2064 10.5799 14.07 10.5799C12.9336 10.5799 12 11.5135 12 12.6499V15.6399H11.08V9.65992Z" fill="#EFEFEF"/>
</svg>
