<svg width="24" height="23" viewBox="0 0 24 23" fill="none" xmlns="http://www.w3.org/2000/svg">
<g clip-path="url(#clip0_5_156)">
<path d="M16.2406 2.51562C13.4896 2.51562 11.2525 4.75273 11.2525 7.50375C11.2525 7.66906 11.2938 7.83078 11.31 7.9925C7.9085 7.66727 4.90053 6.02852 2.85748 3.52187C2.76225 3.40148 2.61491 3.3368 2.46037 3.34758C2.30764 3.35836 2.17108 3.44641 2.09561 3.57937C1.66616 4.31789 1.41998 5.16781 1.41998 6.08062C1.41998 7.1857 1.8153 8.19734 2.42623 9.0275C2.30764 8.97539 2.17827 8.94664 2.06686 8.88375C1.92491 8.80828 1.7542 8.81187 1.61584 8.89453C1.47748 8.97719 1.39303 9.12633 1.39123 9.28625V9.34375C1.39123 11.0382 2.26811 12.5098 3.56186 13.4119C3.54748 13.4101 3.53311 13.4155 3.51873 13.4119C3.36061 13.3849 3.20069 13.4406 3.09467 13.561C2.98866 13.6814 2.95452 13.8485 3.00123 14.0012C3.51514 15.5987 4.82686 16.8187 6.45123 17.2644C5.15748 18.0334 3.65709 18.4862 2.03811 18.4862C1.68772 18.4862 1.3517 18.4683 1.01748 18.4287C0.801859 18.4 0.595218 18.5258 0.523343 18.7306C0.449671 18.9355 0.530531 19.1637 0.715609 19.2769C2.791 20.6084 5.25452 21.39 7.90311 21.39C12.1958 21.39 15.5632 19.5967 17.8219 17.0344C20.0805 14.472 21.2575 11.1442 21.2575 8.03562C21.2575 7.90445 21.2467 7.77687 21.2431 7.6475C22.0858 7.00242 22.8387 6.24594 23.4281 5.36187C23.5449 5.19117 23.5323 4.96297 23.3976 4.80484C23.2646 4.64672 23.04 4.5982 22.8531 4.68625C22.6159 4.79227 22.3392 4.80305 22.0912 4.8875C22.4183 4.45086 22.6986 3.98008 22.8675 3.45C22.925 3.26852 22.8621 3.06906 22.713 2.95047C22.5638 2.83367 22.3554 2.8193 22.1919 2.91812C21.4066 3.38352 20.5369 3.71055 19.6187 3.91C18.7275 3.07625 17.5541 2.51562 16.2406 2.51562ZM16.2406 3.43562C17.414 3.43562 18.4741 3.93695 19.2162 4.72937C19.3276 4.84437 19.4912 4.89289 19.6475 4.85875C20.2476 4.74016 20.8172 4.56586 21.3725 4.34125C21.0526 4.7725 20.6573 5.14086 20.1937 5.41937C19.9835 5.5218 19.8847 5.76437 19.9619 5.98539C20.0374 6.20461 20.2674 6.33219 20.4956 6.28187C20.9556 6.22617 21.3653 6.0393 21.8037 5.9225C21.4102 6.34836 20.979 6.73289 20.51 7.0725C20.3824 7.16594 20.3123 7.31687 20.3231 7.475C20.3303 7.66187 20.3375 7.84695 20.3375 8.03562C20.3375 10.9106 19.2342 14.0318 17.1319 16.4162C15.0295 18.8007 11.9425 20.47 7.90311 20.47C6.0685 20.47 4.33631 20.0639 2.77123 19.3487C4.71186 19.1996 6.50155 18.5132 7.94623 17.3794C8.09717 17.259 8.15647 17.0577 8.09537 16.8745C8.03428 16.6912 7.86537 16.5654 7.67311 16.56C6.15655 16.533 4.88616 15.6508 4.20873 14.4037C4.23389 14.4037 4.25545 14.4037 4.28061 14.4037C4.73522 14.4037 5.18444 14.3462 5.60311 14.2312C5.80436 14.172 5.94272 13.9851 5.93553 13.7748C5.92834 13.5646 5.7792 13.3849 5.57436 13.34C3.93741 13.0094 2.71014 11.6761 2.42623 10.0194C2.88983 10.1793 3.3642 10.3051 3.87811 10.3212C4.08834 10.3338 4.27881 10.2027 4.3435 10.0032C4.40819 9.80375 4.32912 9.58453 4.15123 9.47312C3.05873 8.7418 2.33998 7.49656 2.33998 6.08062C2.33998 5.55594 2.47655 5.07437 2.65623 4.61437C4.95623 7.13898 8.17623 8.81547 11.8131 8.99875C11.9569 9.00594 12.097 8.94664 12.1905 8.83703C12.2839 8.72562 12.3198 8.57828 12.2875 8.43812C12.2174 8.13984 12.1725 7.82359 12.1725 7.50375C12.1725 5.25047 13.9873 3.43562 16.2406 3.43562Z" fill="#EFEFEF"/>
</g>
<defs>
<clipPath id="clip0_5_156">
<rect width="23" height="23" fill="white" transform="translate(0.5)"/>
</clipPath>
</defs>
</svg>
